# xmcd
# Track frame offsets:
# 150
# 17287
# 39050
# 60855
# 81552
# 99015
# 108477
# 119545
# 139222
# 150520
#
# Disc length: 2422 seconds
# Revision: 0
# Processed by: cddbd v1.4PL0 Copyright (c) Steve Scherf et al.
# Submitted via: VisiTrax 2.9.3.171 - For more info visit www.synapsa.com
#
DISCID=6b09740a
DTITLE=The Jim Liban Blues Combo - Live at Romie's
DYEAR=1996
DGENRE=Blues
TTITLE0=Tonight With a Fool
TTITLE1=That Ain't It
TTITLE2=Chicken Shack
TTITLE3=Call My Job
TTITLE4=29 Ways
TTITLE5=Don't Mess With the Messer
TTITLE6=Baby
TTITLE7=Emily
TTITLE8=Take Out Some Insurance
TTITLE9=Blues After Hours
EXTD=
EXTT0=
EXTT1=
EXTT2=
EXTT3=
EXTT4=
EXTT5=
EXTT6=
EXTT7=
EXTT8=
EXTT9=
PLAYORDER=
